<mxfile host="app.diagrams.net" modified="2020-09-09T09:21:44.189Z" agent="5.0 (Windows NT 10.0; Win64; x64) AppleWebKit/537.36 (KHTML, like Gecko) Chrome/84.0.4147.135 Safari/537.36 OPR/70.0.3728.154" etag="gzgmi9KPQIJi3d_JlGxi" version="13.6.9" type="github">
  <diagram id="O7x52xXZMumNZvnUF8GZ" name="Page-1">
    <mxGraphModel dx="1094" dy="670" grid="1" gridSize="10" guides="1" tooltips="1" connect="1" arrows="1" fold="1" page="1" pageScale="1" pageWidth="1200" pageHeight="1600" background="none" math="0" shadow="0">
      <root>
        <mxCell id="0" />
        <mxCell id="1" parent="0" />
      </root>
    </mxGraphModel>
  </diagram>
</mxfile>
